<?xml version="1.0" encoding="UTF-8" standalone="no" ?>
<!DOCTYPE svg PUBLIC "-//W3C//DTD SVG 1.1//EN" "http://www.w3.org/Graphics/SVG/1.1/DTD/svg11.dtd">
<svg xmlns="http://www.w3.org/2000/svg" xmlns:xlink="http://www.w3.org/1999/xlink" version="1.1" width="500" height="500" viewBox="0 0 500 500" xml:space="preserve">
<desc>Created with Fabric.js 4.6.0</desc>
<defs>
</defs>
<g transform="matrix(0.98 0 0 0.98 251.91 251.91)" id="tcLrk_kQ8AdXSahMLKQ7b"  >
<path style="stroke: none; stroke-width: 1; stroke-dasharray: none; stroke-linecap: butt; stroke-dashoffset: 0; stroke-linejoin: miter; stroke-miterlimit: 4; fill: rgb(255,255,255); fill-rule: nonzero; opacity: 1;" vector-effect="non-scaling-stroke"  transform=" translate(-250, -250)" d="M 250 109.375 C 202.539 109.375 164.063 147.852 164.063 195.313 C 164.063 242.774 202.54 281.251 250.00099999999998 281.251 C 297.462 281.251 335.93899999999996 242.77399999999997 335.93899999999996 195.31399999999996 C 335.93899999999996 147.85299999999995 297.462 109.37699999999997 250.00199999999995 109.37699999999997 z M 250 234.375 C 228.457 234.375 210.938 216.846 210.938 195.313 C 210.938 173.731 228.41899999999998 156.25099999999998 250.00099999999998 156.25099999999998 C 271.58299999999997 156.25099999999998 289.06399999999996 173.76999999999998 289.06399999999996 195.31399999999996 C 289.06399999999996 216.89599999999996 271.58299999999997 234.37699999999995 250.00199999999995 234.37699999999995 z M 250 0 C 111.91399999999999 0 0 111.914 0 250 C 0 388.086 111.914 500 250 500 C 388.086 500 500 388.086 500 250 C 500 111.91399999999999 388.086 0 250 0 z M 250 453.125 C 204.365 453.125 162.344 437.813 128.418 412.314 C 145.312 379.882 178.125 359.375 215.039 359.375 L 285.049 359.375 C 321.914 359.375 354.687 379.892 371.65099999999995 412.314 C 337.69599999999997 437.79200000000003 295.60599999999994 453.125 250.00099999999995 453.125 z M 406.445 379.394 C 380.077 338.183 335.156 312.5 284.961 312.5 L 215.03900000000002 312.5 C 164.883 312.5 119.97100000000002 338.135 93.55500000000002 379.375 C 64.41400000000002 344.238 46.87500000000002 299.121 46.87500000000002 250 C 46.87500000000002 137.988 137.99800000000002 46.875 250.00000000000003 46.875 C 362.002 46.875 453.125 137.998 453.125 250 C 453.125 299.121 435.547 344.238 406.445 379.394 z" stroke-linecap="round" />
</g>
</svg>